# xmcd
#
# Track frame offsets: 
#        150
#        14248
#        33599
#        53252
#        72097
#        96458
#        110011
#        123922
#        135954
#        157353
#        184453
#        207571
#        221894
#        238901
#        260691
#        280944
#
# Disc length: 4049 seconds
#
# Revision: 0
# Processed by: cddbd v1.4PL0 Copyright (c) Steve Scherf et al.
# Submitted via: ExactAudioCopy v0.90b4
#
DISCID=040fcf10
DTITLE=Van Morrison - Remembering Lonnie, disc 1
DYEAR=2003
DGENRE=Celtic
TTITLE0=All Blues
TTITLE1=Celtic Swing
TTITLE2=Only A Dream
TTITLE3=Talk Is Cheap
TTITLE4=Early In The Morning ('Bout The Break Of Day)
TTITLE5=Lost John
TTITLE6=Don't Worry About A Thing
TTITLE7=Days Like This
TTITLE8=That's Life
TTITLE9=Too Long In Exile
TTITLE10=What Would I Do
TTITLE11=Here Comes The Night
TTITLE12=Have I Told You Lately
TTITLE13=In The Midnight
TTITLE14=All Work And No Play
TTITLE15=St. James Infirmary
EXTD=
EXTT0=
EXTT1=
EXTT2=
EXTT3=
EXTT4=
EXTT5=
EXTT6=
EXTT7=
EXTT8=
EXTT9=
EXTT10=
EXTT11=
EXTT12=
EXTT13=
EXTT14=
EXTT15=
PLAYORDER=
